<svg width="35" height="24" viewBox="0 0 35 24" fill="none" xmlns="http://www.w3.org/2000/svg">
<g id="Icon">
<path id="Vector" d="M18.7865 13.1341L13.3955 22.3669L8.00464 13.1341H18.7865ZM20.2307 12.3088H6.5546L13.3955 24L20.2307 12.3088Z" fill="#263238"/>
<path id="Vector_2" d="M28.1592 1.65038L33.5501 10.8833H22.7683L28.1592 1.65038ZM28.1592 0L21.3182 11.6912H35.0002L28.1592 0Z" fill="#263238"/>
<path id="Vector_3" d="M0.000152588 0L5.73606 10.3409L12.004 0.259661L0.000152588 0Z" fill="#4CAF4F"/>
<path id="Vector_4" d="M13.3957 0.905762L19.4122 11.1889H7.36743L13.3957 0.905762Z" fill="#4CAF4F"/>
<path id="Vector_5" d="M20.9616 13.4341L26.984 24H14.6527L20.7745 13.4341H20.9616Z" fill="#4CAF4F"/>
<path id="Vector_6" d="M22.2655 12.7935L28.1592 23.1978L34.1348 12.7935H22.2655Z" fill="#4CAF4F"/>
</g>
</svg>
